<?xml version="1.0" encoding="UTF-8" standalone="no"?>
<!DOCTYPE svg PUBLIC "-//W3C//DTD SVG 1.1//EN" "http://www.w3.org/Graphics/SVG/1.1/DTD/svg11.dtd">
<svg width="100%" height="100%" viewBox="0 0 2400 560" version="1.1" xmlns="http://www.w3.org/2000/svg" xmlns:xlink="http://www.w3.org/1999/xlink" xml:space="preserve" xmlns:serif="http://www.serif.com/" style="fill-rule:evenodd;clip-rule:evenodd;stroke-linejoin:round;stroke-miterlimit:2;">
    <g id="_2400x560" serif:id="2400x560" transform="matrix(4,0,0,0.933333,0,0)">
        <rect x="0" y="0" width="600" height="600" style="fill:none;"/>
        <g id="Logo" transform="matrix(1.00218,0,0,1.07377,-3.36557,-15.3282)">
            <g transform="matrix(0.183809,-0.735238,0.183809,0.735238,32.7677,352.484)">
                <g transform="matrix(0.625,0,0,0.625,52.5,13.75)">
                    <circle cx="180" cy="210" r="40" style="fill:rgb(115,136,140);"/>
                </g>
                <g transform="matrix(0.625,0,0,0.625,112.5,13.75)">
                    <circle cx="180" cy="210" r="40" style="fill:rgb(115,136,140);"/>
                </g>
                <g transform="matrix(0.625,5.55112e-17,-5.55112e-17,0.625,112.5,73.75)">
                    <circle cx="180" cy="210" r="40" style="fill:rgb(115,136,140);"/>
                </g>
                <g transform="matrix(0.625,0,0,0.625,52.5,73.75)">
                    <circle cx="180" cy="210" r="40" style="fill:rgb(115,136,140);"/>
                </g>
                <g transform="matrix(0.625,0,0,0.625,52.5,133.75)">
                    <circle cx="180" cy="210" r="40" style="fill:rgb(115,136,140);"/>
                </g>
                <g transform="matrix(0.625,0,0,0.625,172.5,13.75)">
                    <circle cx="180" cy="210" r="40" style="fill:rgb(115,136,140);"/>
                </g>
                <g transform="matrix(0.625,5.55112e-17,-5.55112e-17,0.625,155,116.167)">
                    <circle cx="180" cy="210" r="40" style="fill:rgb(115,136,140);"/>
                </g>
            </g>
            <g transform="matrix(0.183809,-0.735238,-0.183809,-0.735238,80.5582,455.418)">
                <g transform="matrix(0.625,0,0,0.625,52.5,13.75)">
                    <circle cx="180" cy="210" r="40" style="fill:rgb(26,194,230);"/>
                </g>
                <g transform="matrix(0.625,0,0,0.625,112.5,13.75)">
                    <circle cx="180" cy="210" r="40" style="fill:rgb(26,194,230);"/>
                </g>
                <g transform="matrix(0.625,5.55112e-17,-5.55112e-17,0.625,112.5,73.75)">
                    <circle cx="180" cy="210" r="40" style="fill:rgb(26,194,230);"/>
                </g>
                <g transform="matrix(0.625,0,0,0.625,52.5,73.75)">
                    <circle cx="180" cy="210" r="40" style="fill:rgb(26,194,230);"/>
                </g>
                <g transform="matrix(0.625,0,0,0.625,52.5,133.75)">
                    <circle cx="180" cy="210" r="40" style="fill:rgb(26,194,230);"/>
                </g>
                <g transform="matrix(0.625,0,0,0.625,172.5,13.75)">
                    <circle cx="180" cy="210" r="40" style="fill:rgb(26,194,230);"/>
                </g>
                <g transform="matrix(0.625,5.55112e-17,-5.55112e-17,0.625,155,116.167)">
                    <circle cx="180" cy="210" r="40" style="fill:rgb(26,194,230);"/>
                </g>
            </g>
            <g transform="matrix(-0.183809,0.735238,0.183809,0.735238,65.8534,131.913)">
                <g transform="matrix(0.625,0,0,0.625,52.5,13.75)">
                    <circle cx="180" cy="210" r="40" style="fill:rgb(26,194,230);"/>
                </g>
                <g transform="matrix(0.625,0,0,0.625,112.5,13.75)">
                    <circle cx="180" cy="210" r="40" style="fill:rgb(26,194,230);"/>
                </g>
                <g transform="matrix(0.625,5.55112e-17,-5.55112e-17,0.625,112.5,73.75)">
                    <circle cx="180" cy="210" r="40" style="fill:rgb(26,194,230);"/>
                </g>
                <g transform="matrix(0.625,0,0,0.625,52.5,73.75)">
                    <circle cx="180" cy="210" r="40" style="fill:rgb(26,194,230);"/>
                </g>
                <g transform="matrix(0.625,0,0,0.625,52.5,133.75)">
                    <circle cx="180" cy="210" r="40" style="fill:rgb(26,194,230);"/>
                </g>
                <g transform="matrix(0.625,0,0,0.625,172.5,13.75)">
                    <circle cx="180" cy="210" r="40" style="fill:rgb(26,194,230);"/>
                </g>
                <g transform="matrix(0.625,5.55112e-17,-5.55112e-17,0.625,155,116.167)">
                    <circle cx="180" cy="210" r="40" style="fill:rgb(26,194,230);"/>
                </g>
            </g>
            <g transform="matrix(-0.183809,0.735238,-0.183809,-0.735238,113.644,234.846)">
                <g transform="matrix(0.625,0,0,0.625,52.5,13.75)">
                    <circle cx="180" cy="210" r="40" style="fill:rgb(115,136,140);"/>
                </g>
                <g transform="matrix(0.625,0,0,0.625,112.5,13.75)">
                    <circle cx="180" cy="210" r="40" style="fill:rgb(115,136,140);"/>
                </g>
                <g transform="matrix(0.625,5.55112e-17,-5.55112e-17,0.625,112.5,73.75)">
                    <circle cx="180" cy="210" r="40" style="fill:rgb(115,136,140);"/>
                </g>
                <g transform="matrix(0.625,0,0,0.625,52.5,73.75)">
                    <circle cx="180" cy="210" r="40" style="fill:rgb(115,136,140);"/>
                </g>
                <g transform="matrix(0.625,0,0,0.625,52.5,133.75)">
                    <circle cx="180" cy="210" r="40" style="fill:rgb(115,136,140);"/>
                </g>
                <g transform="matrix(0.625,0,0,0.625,172.5,13.75)">
                    <circle cx="180" cy="210" r="40" style="fill:rgb(115,136,140);"/>
                </g>
                <g transform="matrix(0.625,5.55112e-17,-5.55112e-17,0.625,155,116.167)">
                    <circle cx="180" cy="210" r="40" style="fill:rgb(115,136,140);"/>
                </g>
            </g>
        </g>
        <g id="Fonts" transform="matrix(0.987035,0,0,0.948194,4.8627,16.9631)">
            <g transform="matrix(0.25,0,0,1.11111,-1,26.6075)">
                <g transform="matrix(180,0,0,180,584.38,213.023)">
                    <path d="M0.29,0.008C0.255,0.008 0.221,0.005 0.189,0C0.157,-0.005 0.129,-0.011 0.105,-0.018C0.081,-0.025 0.065,-0.032 0.055,-0.038L0.078,-0.183C0.09,-0.176 0.107,-0.169 0.128,-0.162C0.149,-0.154 0.172,-0.148 0.198,-0.143C0.223,-0.138 0.249,-0.135 0.275,-0.135C0.31,-0.135 0.335,-0.14 0.351,-0.15C0.367,-0.16 0.375,-0.176 0.375,-0.198C0.375,-0.214 0.37,-0.228 0.361,-0.239C0.351,-0.25 0.335,-0.261 0.313,-0.273C0.291,-0.285 0.261,-0.299 0.224,-0.317C0.193,-0.332 0.164,-0.35 0.138,-0.37C0.111,-0.391 0.09,-0.415 0.074,-0.444C0.058,-0.473 0.05,-0.507 0.05,-0.547C0.05,-0.581 0.056,-0.611 0.069,-0.636C0.082,-0.662 0.1,-0.683 0.124,-0.7C0.147,-0.717 0.175,-0.73 0.208,-0.738C0.24,-0.747 0.276,-0.751 0.315,-0.751C0.371,-0.751 0.417,-0.746 0.452,-0.736C0.487,-0.725 0.512,-0.716 0.525,-0.708L0.496,-0.569C0.481,-0.581 0.458,-0.591 0.427,-0.601C0.396,-0.611 0.364,-0.616 0.331,-0.616C0.308,-0.616 0.289,-0.613 0.274,-0.608C0.259,-0.603 0.247,-0.596 0.24,-0.587C0.233,-0.577 0.229,-0.566 0.229,-0.554C0.229,-0.539 0.233,-0.526 0.242,-0.514C0.251,-0.503 0.265,-0.491 0.284,-0.48C0.303,-0.469 0.327,-0.457 0.357,-0.443C0.389,-0.429 0.418,-0.414 0.443,-0.399C0.468,-0.384 0.489,-0.368 0.507,-0.35C0.525,-0.332 0.538,-0.312 0.547,-0.29C0.556,-0.267 0.561,-0.241 0.561,-0.212C0.561,-0.168 0.551,-0.129 0.53,-0.096C0.509,-0.063 0.478,-0.037 0.438,-0.019C0.398,-0.001 0.348,0.008 0.29,0.008Z" style="fill:rgb(115,136,140);fill-rule:nonzero;"/>
                </g>
                <g transform="matrix(180,0,0,180,688.6,213.023)">
                    <path d="M0.059,0.238L0.059,0.099C0.065,0.101 0.074,0.103 0.088,0.106C0.101,0.108 0.112,0.109 0.12,0.109C0.137,0.109 0.156,0.107 0.175,0.103C0.194,0.098 0.211,0.087 0.227,0.07C0.243,0.053 0.254,0.025 0.262,-0.014L0.269,-0L0.19,-0L-0.002,-0.557L0.189,-0.557L0.269,-0.264L0.313,-0.081L0.299,-0.081L0.339,-0.264L0.401,-0.557L0.591,-0.557L0.416,0.013C0.396,0.079 0.37,0.129 0.339,0.163C0.307,0.196 0.274,0.219 0.238,0.232C0.226,0.237 0.21,0.241 0.192,0.244C0.173,0.247 0.157,0.248 0.142,0.248C0.137,0.248 0.128,0.247 0.116,0.246C0.103,0.245 0.091,0.244 0.08,0.242C0.068,0.241 0.061,0.239 0.059,0.238Z" style="fill:rgb(115,136,140);fill-rule:nonzero;"/>
                </g>
                <g transform="matrix(180,0,0,180,791.2,213.023)">
                    <path d="M0.043,-0.037L0.061,-0.162C0.066,-0.157 0.077,-0.151 0.094,-0.143C0.111,-0.135 0.131,-0.128 0.154,-0.122C0.177,-0.116 0.201,-0.113 0.225,-0.113C0.254,-0.113 0.275,-0.116 0.287,-0.122C0.3,-0.129 0.306,-0.139 0.306,-0.153C0.306,-0.163 0.302,-0.171 0.293,-0.178C0.284,-0.185 0.271,-0.192 0.256,-0.199C0.241,-0.205 0.224,-0.211 0.205,-0.218C0.164,-0.233 0.132,-0.249 0.108,-0.267C0.084,-0.284 0.067,-0.304 0.057,-0.326C0.047,-0.348 0.042,-0.374 0.042,-0.402C0.042,-0.438 0.052,-0.468 0.073,-0.492C0.094,-0.516 0.122,-0.534 0.157,-0.546C0.192,-0.558 0.231,-0.564 0.273,-0.564C0.319,-0.564 0.357,-0.56 0.388,-0.552C0.418,-0.544 0.44,-0.537 0.452,-0.53L0.436,-0.403C0.429,-0.409 0.419,-0.415 0.405,-0.422C0.39,-0.429 0.374,-0.434 0.356,-0.439C0.338,-0.444 0.32,-0.446 0.302,-0.446C0.271,-0.446 0.249,-0.443 0.236,-0.437C0.223,-0.43 0.217,-0.421 0.217,-0.408C0.217,-0.393 0.224,-0.382 0.238,-0.375C0.251,-0.368 0.273,-0.359 0.302,-0.348C0.346,-0.332 0.381,-0.316 0.408,-0.3C0.435,-0.283 0.455,-0.265 0.467,-0.244C0.479,-0.223 0.485,-0.198 0.485,-0.169C0.485,-0.111 0.464,-0.067 0.421,-0.037C0.378,-0.007 0.321,0.008 0.25,0.008C0.219,0.008 0.19,0.006 0.163,0.001C0.135,-0.004 0.111,-0.01 0.09,-0.017C0.069,-0.024 0.053,-0.031 0.043,-0.037Z" style="fill:rgb(115,136,140);fill-rule:nonzero;"/>
                </g>
                <g transform="matrix(180,0,0,180,880.3,213.023)">
                    <path d="M0.251,0.008C0.211,0.008 0.179,0.001 0.155,-0.012C0.131,-0.025 0.114,-0.045 0.104,-0.072C0.093,-0.099 0.088,-0.133 0.088,-0.173L0.088,-0.438L0.024,-0.438L0.024,-0.534C0.049,-0.541 0.069,-0.548 0.085,-0.556C0.101,-0.563 0.113,-0.575 0.12,-0.59C0.124,-0.598 0.128,-0.607 0.132,-0.618C0.136,-0.628 0.141,-0.639 0.146,-0.651C0.15,-0.663 0.155,-0.674 0.159,-0.684L0.269,-0.684L0.269,-0.557L0.413,-0.557L0.413,-0.438L0.269,-0.438L0.269,-0.24C0.269,-0.205 0.271,-0.18 0.275,-0.164C0.279,-0.148 0.285,-0.138 0.295,-0.134C0.304,-0.129 0.317,-0.127 0.333,-0.127C0.341,-0.127 0.351,-0.128 0.362,-0.13C0.372,-0.132 0.382,-0.135 0.392,-0.139C0.402,-0.142 0.409,-0.145 0.415,-0.149L0.436,-0.049C0.427,-0.04 0.414,-0.032 0.395,-0.023C0.376,-0.014 0.354,-0.007 0.329,-0.001C0.304,0.005 0.278,0.008 0.251,0.008Z" style="fill:rgb(115,136,140);fill-rule:nonzero;"/>
                </g>
                <g transform="matrix(180,0,0,180,957.7,213.023)">
                    <path d="M0.319,0.008C0.229,0.008 0.16,-0.018 0.113,-0.069C0.066,-0.12 0.042,-0.191 0.042,-0.281C0.042,-0.335 0.053,-0.383 0.075,-0.426C0.097,-0.469 0.129,-0.502 0.17,-0.527C0.212,-0.552 0.262,-0.564 0.321,-0.564C0.351,-0.564 0.379,-0.561 0.407,-0.554C0.435,-0.547 0.46,-0.535 0.482,-0.518C0.503,-0.501 0.521,-0.478 0.535,-0.449C0.548,-0.42 0.555,-0.383 0.555,-0.338C0.555,-0.318 0.554,-0.299 0.553,-0.281C0.552,-0.263 0.551,-0.248 0.549,-0.236L0.135,-0.236L0.145,-0.326L0.387,-0.326C0.389,-0.353 0.387,-0.376 0.383,-0.394C0.379,-0.412 0.372,-0.426 0.361,-0.435C0.35,-0.444 0.335,-0.448 0.317,-0.448C0.296,-0.448 0.278,-0.442 0.264,-0.431C0.249,-0.419 0.238,-0.4 0.231,-0.372C0.224,-0.343 0.22,-0.305 0.221,-0.255C0.222,-0.223 0.228,-0.197 0.239,-0.177C0.25,-0.157 0.266,-0.142 0.287,-0.134C0.307,-0.125 0.332,-0.12 0.361,-0.12C0.379,-0.12 0.398,-0.121 0.418,-0.124C0.437,-0.127 0.455,-0.13 0.472,-0.135C0.489,-0.139 0.502,-0.143 0.511,-0.148L0.539,-0.052C0.527,-0.042 0.51,-0.032 0.488,-0.023C0.466,-0.014 0.441,-0.007 0.412,-0.001C0.383,0.005 0.352,0.008 0.319,0.008Z" style="fill:rgb(115,136,140);fill-rule:nonzero;"/>
                </g>
                <g transform="matrix(180,0,0,180,1059.58,213.023)">
                    <path d="M0.072,-0L0.072,-0.557L0.237,-0.557L0.241,-0.497C0.254,-0.507 0.27,-0.518 0.289,-0.528C0.308,-0.538 0.329,-0.547 0.352,-0.554C0.375,-0.561 0.399,-0.565 0.423,-0.565C0.46,-0.566 0.491,-0.56 0.516,-0.547C0.541,-0.533 0.56,-0.511 0.572,-0.479C0.585,-0.448 0.591,-0.405 0.591,-0.352L0.591,-0L0.411,-0L0.411,-0.318C0.411,-0.345 0.409,-0.366 0.405,-0.382C0.4,-0.397 0.393,-0.408 0.383,-0.414C0.373,-0.42 0.359,-0.423 0.342,-0.423C0.329,-0.423 0.314,-0.42 0.297,-0.414C0.28,-0.408 0.265,-0.399 0.252,-0.387L0.252,-0L0.072,-0ZM0.584,-0.383L0.554,-0.494C0.563,-0.502 0.576,-0.512 0.595,-0.523C0.614,-0.534 0.636,-0.544 0.662,-0.553C0.688,-0.561 0.717,-0.565 0.748,-0.565C0.785,-0.565 0.817,-0.559 0.844,-0.546C0.871,-0.533 0.891,-0.511 0.906,-0.48C0.92,-0.448 0.927,-0.405 0.927,-0.351L0.927,-0L0.746,-0L0.746,-0.319C0.746,-0.346 0.744,-0.367 0.74,-0.382C0.735,-0.397 0.728,-0.408 0.718,-0.414C0.708,-0.42 0.694,-0.423 0.676,-0.423C0.657,-0.423 0.639,-0.419 0.623,-0.41C0.606,-0.401 0.593,-0.392 0.584,-0.383Z" style="fill:rgb(115,136,140);fill-rule:nonzero;"/>
                </g>
                <g transform="matrix(180,0,0,180,1230.76,213.023)">
                    <path d="M0.074,-0L0.074,-0.557L0.255,-0.557L0.255,-0L0.074,-0ZM0.156,-0.624C0.127,-0.624 0.103,-0.633 0.084,-0.65C0.065,-0.668 0.056,-0.69 0.056,-0.717C0.056,-0.735 0.061,-0.752 0.071,-0.768C0.081,-0.783 0.094,-0.795 0.111,-0.804C0.127,-0.813 0.145,-0.818 0.165,-0.818C0.195,-0.818 0.219,-0.809 0.237,-0.792C0.255,-0.775 0.264,-0.753 0.264,-0.725C0.264,-0.698 0.254,-0.674 0.233,-0.654C0.212,-0.634 0.186,-0.624 0.156,-0.624Z" style="fill:rgb(115,136,140);fill-rule:nonzero;"/>
                </g>
                <g transform="matrix(180,0,0,180,1286.38,213.023)">
                    <path d="M0.034,-0.273C0.034,-0.327 0.044,-0.377 0.064,-0.421C0.084,-0.464 0.115,-0.499 0.156,-0.525C0.198,-0.551 0.251,-0.564 0.316,-0.564C0.354,-0.564 0.387,-0.561 0.415,-0.556C0.443,-0.55 0.461,-0.544 0.47,-0.537L0.45,-0.401C0.439,-0.407 0.425,-0.412 0.407,-0.417C0.39,-0.422 0.368,-0.424 0.341,-0.424C0.322,-0.424 0.303,-0.42 0.284,-0.412C0.265,-0.403 0.249,-0.389 0.237,-0.369C0.224,-0.349 0.218,-0.321 0.217,-0.286C0.216,-0.248 0.222,-0.217 0.233,-0.195C0.244,-0.172 0.259,-0.156 0.278,-0.146C0.297,-0.136 0.319,-0.131 0.342,-0.131C0.366,-0.131 0.388,-0.133 0.408,-0.137C0.428,-0.141 0.444,-0.146 0.456,-0.151L0.479,-0.037C0.464,-0.021 0.44,-0.01 0.407,-0.003C0.374,0.005 0.339,0.008 0.303,0.008C0.242,0.008 0.191,-0.004 0.152,-0.029C0.112,-0.053 0.082,-0.087 0.063,-0.129C0.044,-0.171 0.034,-0.219 0.034,-0.273Z" style="fill:rgb(115,136,140);fill-rule:nonzero;"/>
                </g>
                <g transform="matrix(180,0,0,180,1409.74,213.023)">
                    <path d="M0.08,-0L0.08,-0.743L0.149,-0.743C0.161,-0.743 0.179,-0.744 0.202,-0.745C0.225,-0.746 0.25,-0.748 0.277,-0.749C0.304,-0.75 0.329,-0.751 0.352,-0.751C0.478,-0.751 0.57,-0.72 0.629,-0.657C0.688,-0.594 0.717,-0.505 0.717,-0.39C0.717,-0.306 0.702,-0.234 0.673,-0.174C0.643,-0.115 0.6,-0.069 0.544,-0.038C0.488,-0.007 0.42,0.008 0.341,0.008C0.305,0.007 0.27,0.006 0.238,0.004C0.205,0.001 0.175,-0 0.146,-0L0.08,-0ZM0.267,-0.137C0.277,-0.134 0.289,-0.132 0.305,-0.131C0.32,-0.13 0.336,-0.129 0.352,-0.129C0.387,-0.129 0.417,-0.138 0.443,-0.156C0.469,-0.173 0.489,-0.2 0.503,-0.236C0.517,-0.272 0.524,-0.318 0.524,-0.374C0.524,-0.434 0.518,-0.481 0.505,-0.517C0.492,-0.552 0.472,-0.578 0.445,-0.594C0.419,-0.609 0.385,-0.617 0.345,-0.617C0.333,-0.617 0.319,-0.616 0.304,-0.615C0.288,-0.613 0.276,-0.612 0.267,-0.61L0.267,-0.137Z" style="fill:rgb(26,194,230);fill-rule:nonzero;"/>
                </g>
                <g transform="matrix(180,0,0,180,1540.78,213.023)">
                    <path d="M0.223,0.008C0.186,0.008 0.154,0 0.127,-0.015C0.1,-0.03 0.079,-0.051 0.064,-0.078C0.049,-0.105 0.042,-0.135 0.042,-0.17C0.042,-0.203 0.051,-0.231 0.069,-0.255C0.087,-0.279 0.111,-0.298 0.142,-0.311C0.164,-0.321 0.189,-0.328 0.215,-0.333C0.241,-0.338 0.268,-0.341 0.294,-0.343C0.321,-0.344 0.346,-0.345 0.369,-0.345L0.395,-0.313L0.369,-0.258C0.357,-0.258 0.345,-0.257 0.333,-0.255C0.32,-0.254 0.309,-0.252 0.298,-0.249C0.287,-0.247 0.278,-0.244 0.271,-0.241C0.261,-0.237 0.251,-0.23 0.242,-0.222C0.233,-0.213 0.228,-0.199 0.228,-0.179C0.228,-0.153 0.235,-0.134 0.25,-0.122C0.264,-0.11 0.281,-0.104 0.299,-0.104C0.309,-0.104 0.318,-0.105 0.328,-0.108C0.337,-0.11 0.346,-0.113 0.353,-0.116C0.36,-0.12 0.366,-0.123 0.369,-0.127L0.398,-0.09L0.378,-0.047C0.363,-0.034 0.342,-0.021 0.317,-0.01C0.292,0.002 0.261,0.008 0.223,0.008ZM0.549,-0L0.378,-0L0.378,-0.083L0.369,-0.083L0.369,-0.378C0.369,-0.403 0.362,-0.419 0.349,-0.427C0.335,-0.434 0.316,-0.438 0.291,-0.438C0.27,-0.438 0.247,-0.436 0.224,-0.433C0.201,-0.43 0.179,-0.425 0.157,-0.419C0.135,-0.413 0.116,-0.407 0.1,-0.399L0.063,-0.505C0.077,-0.513 0.096,-0.522 0.122,-0.532C0.148,-0.541 0.177,-0.549 0.21,-0.556C0.242,-0.563 0.275,-0.566 0.308,-0.566C0.366,-0.566 0.413,-0.559 0.449,-0.546C0.484,-0.532 0.509,-0.51 0.525,-0.479C0.541,-0.448 0.549,-0.407 0.549,-0.356L0.549,-0Z" style="fill:rgb(26,194,230);fill-rule:nonzero;"/>
                </g>
                <g transform="matrix(180,0,0,180,1646.44,213.023)">
                    <path d="M0.251,0.008C0.211,0.008 0.179,0.001 0.155,-0.012C0.131,-0.025 0.114,-0.045 0.104,-0.072C0.093,-0.099 0.088,-0.133 0.088,-0.173L0.088,-0.438L0.024,-0.438L0.024,-0.534C0.049,-0.541 0.069,-0.548 0.085,-0.556C0.101,-0.563 0.113,-0.575 0.12,-0.59C0.124,-0.598 0.128,-0.607 0.132,-0.618C0.136,-0.628 0.141,-0.639 0.146,-0.651C0.15,-0.663 0.155,-0.674 0.159,-0.684L0.269,-0.684L0.269,-0.557L0.413,-0.557L0.413,-0.438L0.269,-0.438L0.269,-0.24C0.269,-0.205 0.271,-0.18 0.275,-0.164C0.279,-0.148 0.285,-0.138 0.295,-0.134C0.304,-0.129 0.317,-0.127 0.333,-0.127C0.341,-0.127 0.351,-0.128 0.362,-0.13C0.372,-0.132 0.382,-0.135 0.392,-0.139C0.402,-0.142 0.409,-0.145 0.415,-0.149L0.436,-0.049C0.427,-0.04 0.414,-0.032 0.395,-0.023C0.376,-0.014 0.354,-0.007 0.329,-0.001C0.304,0.005 0.278,0.008 0.251,0.008Z" style="fill:rgb(26,194,230);fill-rule:nonzero;"/>
                </g>
                <g transform="matrix(180,0,0,180,1724.56,213.023)">
                    <path d="M0.223,0.008C0.186,0.008 0.154,0 0.127,-0.015C0.1,-0.03 0.079,-0.051 0.064,-0.078C0.049,-0.105 0.042,-0.135 0.042,-0.17C0.042,-0.203 0.051,-0.231 0.069,-0.255C0.087,-0.279 0.111,-0.298 0.142,-0.311C0.164,-0.321 0.189,-0.328 0.215,-0.333C0.241,-0.338 0.268,-0.341 0.294,-0.343C0.321,-0.344 0.346,-0.345 0.369,-0.345L0.395,-0.313L0.369,-0.258C0.357,-0.258 0.345,-0.257 0.333,-0.255C0.32,-0.254 0.309,-0.252 0.298,-0.249C0.287,-0.247 0.278,-0.244 0.271,-0.241C0.261,-0.237 0.251,-0.23 0.242,-0.222C0.233,-0.213 0.228,-0.199 0.228,-0.179C0.228,-0.153 0.235,-0.134 0.25,-0.122C0.264,-0.11 0.281,-0.104 0.299,-0.104C0.309,-0.104 0.318,-0.105 0.328,-0.108C0.337,-0.11 0.346,-0.113 0.353,-0.116C0.36,-0.12 0.366,-0.123 0.369,-0.127L0.398,-0.09L0.378,-0.047C0.363,-0.034 0.342,-0.021 0.317,-0.01C0.292,0.002 0.261,0.008 0.223,0.008ZM0.549,-0L0.378,-0L0.378,-0.083L0.369,-0.083L0.369,-0.378C0.369,-0.403 0.362,-0.419 0.349,-0.427C0.335,-0.434 0.316,-0.438 0.291,-0.438C0.27,-0.438 0.247,-0.436 0.224,-0.433C0.201,-0.43 0.179,-0.425 0.157,-0.419C0.135,-0.413 0.116,-0.407 0.1,-0.399L0.063,-0.505C0.077,-0.513 0.096,-0.522 0.122,-0.532C0.148,-0.541 0.177,-0.549 0.21,-0.556C0.242,-0.563 0.275,-0.566 0.308,-0.566C0.366,-0.566 0.413,-0.559 0.449,-0.546C0.484,-0.532 0.509,-0.51 0.525,-0.479C0.541,-0.448 0.549,-0.407 0.549,-0.356L0.549,-0Z" style="fill:rgb(26,194,230);fill-rule:nonzero;"/>
                </g>
                <g transform="matrix(180,0,0,180,1860.46,213.023)">
                    <path d="M0.08,-0L0.08,-0.743L0.55,-0.743L0.55,-0.604L0.265,-0.604L0.265,-0.447L0.485,-0.447L0.485,-0.312L0.265,-0.312L0.265,-0.142L0.579,-0.142L0.579,-0L0.08,-0Z" style="fill:rgb(26,194,230);fill-rule:nonzero;"/>
                </g>
                <g transform="matrix(180,0,0,180,1959.94,213.023)">
                    <path d="M0.251,0.008C0.211,0.008 0.179,0.001 0.155,-0.012C0.131,-0.025 0.114,-0.045 0.104,-0.072C0.093,-0.099 0.088,-0.133 0.088,-0.173L0.088,-0.438L0.024,-0.438L0.024,-0.534C0.049,-0.541 0.069,-0.548 0.085,-0.556C0.101,-0.563 0.113,-0.575 0.12,-0.59C0.124,-0.598 0.128,-0.607 0.132,-0.618C0.136,-0.628 0.141,-0.639 0.146,-0.651C0.15,-0.663 0.155,-0.674 0.159,-0.684L0.269,-0.684L0.269,-0.557L0.413,-0.557L0.413,-0.438L0.269,-0.438L0.269,-0.24C0.269,-0.205 0.271,-0.18 0.275,-0.164C0.279,-0.148 0.285,-0.138 0.295,-0.134C0.304,-0.129 0.317,-0.127 0.333,-0.127C0.341,-0.127 0.351,-0.128 0.362,-0.13C0.372,-0.132 0.382,-0.135 0.392,-0.139C0.402,-0.142 0.409,-0.145 0.415,-0.149L0.436,-0.049C0.427,-0.04 0.414,-0.032 0.395,-0.023C0.376,-0.014 0.354,-0.007 0.329,-0.001C0.304,0.005 0.278,0.008 0.251,0.008Z" style="fill:rgb(26,194,230);fill-rule:nonzero;"/>
                </g>
                <g transform="matrix(180,0,0,180,2039.14,213.023)">
                    <path d="M0.07,-0L0.07,-0.812L0.251,-0.812L0.251,-0.603L0.241,-0.478L0.236,-0.493C0.248,-0.504 0.263,-0.515 0.282,-0.526C0.3,-0.537 0.321,-0.546 0.344,-0.553C0.367,-0.561 0.391,-0.565 0.416,-0.565C0.477,-0.567 0.521,-0.55 0.55,-0.514C0.579,-0.479 0.593,-0.424 0.593,-0.349L0.593,-0L0.411,-0L0.411,-0.318C0.411,-0.361 0.405,-0.389 0.394,-0.403C0.382,-0.417 0.364,-0.424 0.34,-0.423C0.329,-0.423 0.314,-0.42 0.297,-0.415C0.28,-0.41 0.265,-0.401 0.251,-0.387L0.251,-0L0.07,-0Z" style="fill:rgb(26,194,230);fill-rule:nonzero;"/>
                </g>
                <g transform="matrix(180,0,0,180,2148.4,213.023)">
                    <path d="M0.074,-0L0.074,-0.557L0.255,-0.557L0.255,-0L0.074,-0ZM0.156,-0.624C0.127,-0.624 0.103,-0.633 0.084,-0.65C0.065,-0.668 0.056,-0.69 0.056,-0.717C0.056,-0.735 0.061,-0.752 0.071,-0.768C0.081,-0.783 0.094,-0.795 0.111,-0.804C0.127,-0.813 0.145,-0.818 0.165,-0.818C0.195,-0.818 0.219,-0.809 0.237,-0.792C0.255,-0.775 0.264,-0.753 0.264,-0.725C0.264,-0.698 0.254,-0.674 0.233,-0.654C0.212,-0.634 0.186,-0.624 0.156,-0.624Z" style="fill:rgb(26,194,230);fill-rule:nonzero;"/>
                </g>
                <g transform="matrix(180,0,0,180,2202.04,213.023)">
                    <path d="M0.034,-0.273C0.034,-0.327 0.044,-0.377 0.064,-0.421C0.084,-0.464 0.115,-0.499 0.156,-0.525C0.198,-0.551 0.251,-0.564 0.316,-0.564C0.354,-0.564 0.387,-0.561 0.415,-0.556C0.443,-0.55 0.461,-0.544 0.47,-0.537L0.45,-0.401C0.439,-0.407 0.425,-0.412 0.407,-0.417C0.39,-0.422 0.368,-0.424 0.341,-0.424C0.322,-0.424 0.303,-0.42 0.284,-0.412C0.265,-0.403 0.249,-0.389 0.237,-0.369C0.224,-0.349 0.218,-0.321 0.217,-0.286C0.216,-0.248 0.222,-0.217 0.233,-0.195C0.244,-0.172 0.259,-0.156 0.278,-0.146C0.297,-0.136 0.319,-0.131 0.342,-0.131C0.366,-0.131 0.388,-0.133 0.408,-0.137C0.428,-0.141 0.444,-0.146 0.456,-0.151L0.479,-0.037C0.464,-0.021 0.44,-0.01 0.407,-0.003C0.374,0.005 0.339,0.008 0.303,0.008C0.242,0.008 0.191,-0.004 0.152,-0.029C0.112,-0.053 0.082,-0.087 0.063,-0.129C0.044,-0.171 0.034,-0.219 0.034,-0.273Z" style="fill:rgb(26,194,230);fill-rule:nonzero;"/>
                </g>
                <g transform="matrix(180,0,0,180,2289.16,213.023)">
                    <path d="M0.043,-0.037L0.061,-0.162C0.066,-0.157 0.077,-0.151 0.094,-0.143C0.111,-0.135 0.131,-0.128 0.154,-0.122C0.177,-0.116 0.201,-0.113 0.225,-0.113C0.254,-0.113 0.275,-0.116 0.287,-0.122C0.3,-0.129 0.306,-0.139 0.306,-0.153C0.306,-0.163 0.302,-0.171 0.293,-0.178C0.284,-0.185 0.271,-0.192 0.256,-0.199C0.241,-0.205 0.224,-0.211 0.205,-0.218C0.164,-0.233 0.132,-0.249 0.108,-0.267C0.084,-0.284 0.067,-0.304 0.057,-0.326C0.047,-0.348 0.042,-0.374 0.042,-0.402C0.042,-0.438 0.052,-0.468 0.073,-0.492C0.094,-0.516 0.122,-0.534 0.157,-0.546C0.192,-0.558 0.231,-0.564 0.273,-0.564C0.319,-0.564 0.357,-0.56 0.388,-0.552C0.418,-0.544 0.44,-0.537 0.452,-0.53L0.436,-0.403C0.429,-0.409 0.419,-0.415 0.405,-0.422C0.39,-0.429 0.374,-0.434 0.356,-0.439C0.338,-0.444 0.32,-0.446 0.302,-0.446C0.271,-0.446 0.249,-0.443 0.236,-0.437C0.223,-0.43 0.217,-0.421 0.217,-0.408C0.217,-0.393 0.224,-0.382 0.238,-0.375C0.251,-0.368 0.273,-0.359 0.302,-0.348C0.346,-0.332 0.381,-0.316 0.408,-0.3C0.435,-0.283 0.455,-0.265 0.467,-0.244C0.479,-0.223 0.485,-0.198 0.485,-0.169C0.485,-0.111 0.464,-0.067 0.421,-0.037C0.378,-0.007 0.321,0.008 0.25,0.008C0.219,0.008 0.19,0.006 0.163,0.001C0.135,-0.004 0.111,-0.01 0.09,-0.017C0.069,-0.024 0.053,-0.031 0.043,-0.037Z" style="fill:rgb(26,194,230);fill-rule:nonzero;"/>
                </g>
            </g>
            <g transform="matrix(0.263308,0,0,1.11111,-10.66,-62.7045)">
                <g transform="matrix(119.632,0,0,126,589.633,455.819)">
                    <path d="M0.094,-0L0.094,-0.743L0.11,-0.743C0.118,-0.743 0.127,-0.743 0.136,-0.743C0.145,-0.743 0.15,-0.744 0.152,-0.744C0.168,-0.744 0.185,-0.745 0.203,-0.746C0.221,-0.747 0.24,-0.748 0.259,-0.749C0.278,-0.749 0.298,-0.75 0.317,-0.75C0.435,-0.75 0.523,-0.719 0.582,-0.656C0.64,-0.593 0.669,-0.506 0.669,-0.393C0.669,-0.312 0.655,-0.241 0.627,-0.18C0.598,-0.12 0.557,-0.073 0.503,-0.04C0.449,-0.007 0.383,0.009 0.306,0.008C0.285,0.007 0.26,0.006 0.23,0.004C0.2,0.002 0.173,0.001 0.148,0.001C0.145,0.001 0.139,0 0.131,0C0.122,0 0.114,-0 0.107,-0L0.094,-0ZM0.176,-0.063C0.195,-0.06 0.218,-0.058 0.245,-0.056C0.272,-0.054 0.297,-0.054 0.318,-0.054C0.37,-0.055 0.416,-0.067 0.456,-0.09C0.495,-0.113 0.526,-0.149 0.549,-0.197C0.571,-0.245 0.583,-0.306 0.583,-0.381C0.583,-0.454 0.573,-0.513 0.552,-0.558C0.53,-0.604 0.498,-0.637 0.456,-0.658C0.414,-0.679 0.361,-0.69 0.298,-0.69C0.275,-0.69 0.253,-0.689 0.232,-0.688C0.212,-0.687 0.193,-0.685 0.176,-0.683L0.176,-0.063Z" style="fill:rgb(115,136,140);fill-rule:nonzero;"/>
                </g>
                <g transform="matrix(119.632,0,0,126,672.896,455.819)">
                    <path d="M0.163,-0.423L0.157,-0.477C0.163,-0.486 0.174,-0.498 0.192,-0.512C0.21,-0.525 0.231,-0.537 0.255,-0.548C0.279,-0.559 0.304,-0.564 0.33,-0.564C0.343,-0.564 0.353,-0.564 0.362,-0.563C0.371,-0.562 0.378,-0.56 0.383,-0.558L0.383,-0.481C0.378,-0.484 0.371,-0.486 0.361,-0.489C0.351,-0.492 0.336,-0.493 0.315,-0.493C0.292,-0.493 0.271,-0.489 0.251,-0.481C0.231,-0.473 0.214,-0.464 0.199,-0.453C0.184,-0.442 0.172,-0.432 0.163,-0.423ZM0.086,-0L0.086,-0.556L0.156,-0.556L0.161,-0.477L0.168,-0.442L0.168,-0L0.086,-0Z" style="fill:rgb(115,136,140);fill-rule:nonzero;"/>
                </g>
                <g transform="matrix(119.632,0,0,126,718.357,455.819)">
                    <path d="M0.098,-0L0.098,-0.556L0.179,-0.556L0.179,-0L0.098,-0ZM0.134,-0.678C0.12,-0.678 0.107,-0.683 0.097,-0.693C0.086,-0.702 0.081,-0.716 0.081,-0.733C0.081,-0.745 0.084,-0.756 0.09,-0.766C0.096,-0.775 0.104,-0.783 0.113,-0.788C0.122,-0.793 0.131,-0.796 0.141,-0.796C0.159,-0.796 0.172,-0.791 0.181,-0.78C0.19,-0.77 0.194,-0.757 0.194,-0.741C0.194,-0.722 0.188,-0.707 0.176,-0.695C0.164,-0.684 0.15,-0.678 0.134,-0.678Z" style="fill:rgb(115,136,140);fill-rule:nonzero;"/>
                </g>
                <g transform="matrix(119.632,0,0,126,749.222,455.819)">
                    <path d="M0.241,0.009L0.018,-0.557L0.106,-0.557L0.232,-0.211L0.289,-0.038L0.265,-0.038L0.317,-0.211L0.439,-0.557L0.526,-0.557L0.31,0.009L0.241,0.009Z" style="fill:rgb(115,136,140);fill-rule:nonzero;"/>
                </g>
                <g transform="matrix(119.632,0,0,126,812.028,455.819)">
                    <path d="M0.098,-0L0.098,-0.556L0.179,-0.556L0.179,-0L0.098,-0ZM0.134,-0.678C0.12,-0.678 0.107,-0.683 0.097,-0.693C0.086,-0.702 0.081,-0.716 0.081,-0.733C0.081,-0.745 0.084,-0.756 0.09,-0.766C0.096,-0.775 0.104,-0.783 0.113,-0.788C0.122,-0.793 0.131,-0.796 0.141,-0.796C0.159,-0.796 0.172,-0.791 0.181,-0.78C0.19,-0.77 0.194,-0.757 0.194,-0.741C0.194,-0.722 0.188,-0.707 0.176,-0.695C0.164,-0.684 0.15,-0.678 0.134,-0.678Z" style="fill:rgb(115,136,140);fill-rule:nonzero;"/>
                </g>
                <g transform="matrix(119.632,0,0,126,842.893,455.819)">
                    <path d="M0.096,-0L0.096,-0.556L0.169,-0.556L0.169,-0.485C0.182,-0.495 0.2,-0.506 0.222,-0.518C0.244,-0.53 0.268,-0.541 0.294,-0.55C0.32,-0.559 0.347,-0.564 0.374,-0.565C0.435,-0.566 0.478,-0.55 0.503,-0.517C0.528,-0.484 0.541,-0.426 0.541,-0.344L0.541,-0L0.459,-0L0.459,-0.345C0.459,-0.4 0.451,-0.44 0.436,-0.464C0.42,-0.488 0.388,-0.499 0.34,-0.497C0.323,-0.497 0.304,-0.493 0.285,-0.487C0.265,-0.48 0.246,-0.471 0.227,-0.461C0.208,-0.451 0.192,-0.44 0.178,-0.429L0.178,-0L0.096,-0Z" style="fill:rgb(115,136,140);fill-rule:nonzero;"/>
                </g>
                <g transform="matrix(119.632,0,0,126,916.347,455.819)">
                    <path d="M0.284,0.252C0.214,0.252 0.157,0.24 0.115,0.215C0.072,0.19 0.051,0.15 0.051,0.095C0.051,0.074 0.056,0.055 0.066,0.039C0.076,0.022 0.088,0.008 0.102,-0.004C0.116,-0.015 0.128,-0.023 0.14,-0.028L0.195,-0.02C0.187,-0.014 0.178,-0.007 0.168,0.002C0.158,0.011 0.149,0.022 0.142,0.036C0.135,0.049 0.131,0.066 0.131,0.085C0.131,0.111 0.137,0.132 0.148,0.149C0.159,0.165 0.177,0.177 0.2,0.185C0.223,0.192 0.252,0.196 0.287,0.196C0.319,0.196 0.349,0.192 0.378,0.185C0.407,0.177 0.43,0.166 0.448,0.15C0.466,0.135 0.475,0.115 0.475,0.091C0.475,0.07 0.47,0.052 0.461,0.039C0.452,0.026 0.437,0.016 0.415,0.01C0.394,0.003 0.365,-0 0.328,-0L0.253,-0C0.234,-0 0.216,-0.001 0.201,-0.003C0.186,-0.004 0.173,-0.006 0.162,-0.008C0.159,-0.009 0.156,-0.01 0.153,-0.012C0.15,-0.014 0.147,-0.015 0.144,-0.016C0.12,-0.024 0.104,-0.037 0.097,-0.054C0.09,-0.07 0.087,-0.088 0.087,-0.106C0.087,-0.119 0.091,-0.132 0.098,-0.146C0.105,-0.159 0.115,-0.172 0.127,-0.185C0.139,-0.197 0.152,-0.208 0.166,-0.218L0.218,-0.203C0.207,-0.198 0.195,-0.188 0.181,-0.174C0.168,-0.159 0.161,-0.143 0.161,-0.126C0.161,-0.103 0.167,-0.087 0.179,-0.078C0.191,-0.069 0.212,-0.064 0.241,-0.064L0.362,-0.064C0.402,-0.064 0.434,-0.06 0.459,-0.053C0.484,-0.045 0.503,-0.034 0.517,-0.021C0.531,-0.008 0.54,0.007 0.545,0.023C0.55,0.039 0.553,0.056 0.553,0.074C0.553,0.101 0.546,0.126 0.532,0.148C0.518,0.17 0.499,0.189 0.475,0.204C0.45,0.22 0.421,0.232 0.389,0.24C0.356,0.248 0.321,0.252 0.284,0.252ZM0.282,-0.186C0.242,-0.186 0.206,-0.194 0.174,-0.209C0.142,-0.224 0.116,-0.245 0.097,-0.273C0.078,-0.3 0.069,-0.333 0.069,-0.37C0.069,-0.414 0.079,-0.45 0.098,-0.479C0.118,-0.507 0.144,-0.528 0.177,-0.542C0.209,-0.556 0.245,-0.563 0.285,-0.564C0.324,-0.565 0.36,-0.559 0.393,-0.546C0.426,-0.533 0.452,-0.513 0.472,-0.485C0.492,-0.458 0.502,-0.423 0.502,-0.38C0.502,-0.338 0.492,-0.303 0.473,-0.274C0.453,-0.245 0.426,-0.223 0.393,-0.208C0.36,-0.193 0.323,-0.186 0.282,-0.186ZM0.283,-0.24C0.324,-0.24 0.357,-0.251 0.383,-0.272C0.408,-0.293 0.421,-0.328 0.421,-0.377C0.421,-0.422 0.409,-0.455 0.386,-0.477C0.362,-0.498 0.33,-0.509 0.289,-0.509C0.265,-0.509 0.242,-0.505 0.221,-0.497C0.2,-0.489 0.183,-0.475 0.17,-0.455C0.157,-0.436 0.15,-0.409 0.15,-0.374C0.15,-0.336 0.161,-0.304 0.184,-0.279C0.207,-0.253 0.24,-0.24 0.283,-0.24ZM0.438,-0.49L0.409,-0.522C0.417,-0.53 0.432,-0.537 0.456,-0.544C0.48,-0.551 0.504,-0.555 0.529,-0.555L0.575,-0.555L0.575,-0.49L0.438,-0.49Z" style="fill:rgb(115,136,140);fill-rule:nonzero;"/>
                </g>
                <g transform="matrix(119.632,0,0,126,1017.08,455.819)">
                    <path d="M0.176,-0L0.094,-0L0.094,-0.743L0.128,-0.744C0.136,-0.744 0.14,-0.744 0.142,-0.744C0.166,-0.744 0.193,-0.745 0.224,-0.747C0.255,-0.749 0.286,-0.75 0.318,-0.75C0.356,-0.75 0.39,-0.746 0.421,-0.739C0.452,-0.732 0.479,-0.72 0.502,-0.704C0.525,-0.688 0.542,-0.667 0.555,-0.641C0.567,-0.615 0.573,-0.583 0.573,-0.545C0.573,-0.502 0.565,-0.466 0.549,-0.436C0.533,-0.405 0.51,-0.381 0.482,-0.363C0.453,-0.345 0.42,-0.334 0.382,-0.329C0.366,-0.327 0.348,-0.325 0.329,-0.324C0.31,-0.323 0.288,-0.323 0.263,-0.323C0.238,-0.323 0.209,-0.324 0.176,-0.324L0.176,-0ZM0.176,-0.382C0.184,-0.381 0.197,-0.381 0.216,-0.38C0.234,-0.38 0.253,-0.379 0.272,-0.379C0.291,-0.379 0.305,-0.379 0.315,-0.379C0.367,-0.38 0.409,-0.393 0.441,-0.42C0.473,-0.447 0.489,-0.487 0.489,-0.541C0.489,-0.576 0.483,-0.605 0.47,-0.627C0.456,-0.648 0.436,-0.664 0.409,-0.674C0.382,-0.684 0.347,-0.689 0.305,-0.689C0.283,-0.689 0.26,-0.688 0.235,-0.687C0.211,-0.686 0.191,-0.684 0.176,-0.681L0.176,-0.382ZM0.531,-0C0.527,-0.005 0.523,-0.011 0.52,-0.018C0.517,-0.025 0.512,-0.036 0.505,-0.05C0.494,-0.073 0.482,-0.099 0.47,-0.129C0.457,-0.159 0.444,-0.188 0.429,-0.217C0.414,-0.246 0.398,-0.271 0.38,-0.291C0.362,-0.311 0.342,-0.323 0.32,-0.326L0.354,-0.351L0.404,-0.345C0.425,-0.339 0.444,-0.324 0.462,-0.302C0.48,-0.28 0.496,-0.253 0.512,-0.223C0.527,-0.193 0.542,-0.163 0.556,-0.132C0.57,-0.101 0.584,-0.074 0.597,-0.05C0.602,-0.041 0.607,-0.032 0.612,-0.023C0.616,-0.015 0.621,-0.007 0.625,-0L0.531,-0Z" style="fill:rgb(115,136,140);fill-rule:nonzero;"/>
                </g>
                <g transform="matrix(119.632,0,0,126,1091.61,455.819)">
                    <path d="M0.295,0.008C0.217,0.008 0.157,-0.017 0.116,-0.067C0.074,-0.117 0.053,-0.187 0.053,-0.276C0.053,-0.332 0.063,-0.381 0.082,-0.424C0.101,-0.467 0.13,-0.501 0.167,-0.526C0.204,-0.551 0.249,-0.564 0.302,-0.564C0.332,-0.565 0.359,-0.56 0.383,-0.55C0.407,-0.54 0.428,-0.526 0.445,-0.508C0.463,-0.489 0.476,-0.467 0.486,-0.441C0.496,-0.415 0.501,-0.387 0.502,-0.355C0.502,-0.338 0.502,-0.322 0.502,-0.308C0.501,-0.294 0.5,-0.282 0.498,-0.27L0.102,-0.27L0.109,-0.325L0.425,-0.325C0.427,-0.359 0.424,-0.39 0.417,-0.417C0.409,-0.444 0.396,-0.466 0.377,-0.482C0.357,-0.498 0.331,-0.506 0.297,-0.506C0.265,-0.506 0.236,-0.497 0.211,-0.48C0.186,-0.463 0.166,-0.436 0.152,-0.398C0.138,-0.36 0.131,-0.311 0.133,-0.25C0.135,-0.202 0.143,-0.164 0.16,-0.136C0.175,-0.107 0.197,-0.086 0.224,-0.073C0.251,-0.06 0.282,-0.054 0.316,-0.054C0.333,-0.054 0.351,-0.056 0.371,-0.061C0.39,-0.065 0.409,-0.07 0.426,-0.077C0.443,-0.083 0.456,-0.09 0.466,-0.096L0.483,-0.043C0.471,-0.033 0.455,-0.024 0.434,-0.017C0.413,-0.009 0.391,-0.003 0.366,0.002C0.342,0.006 0.318,0.008 0.295,0.008Z" style="fill:rgb(115,136,140);fill-rule:nonzero;"/>
                </g>
                <g transform="matrix(119.632,0,0,126,1155.73,455.819)">
                    <path d="M0.054,-0.032L0.067,-0.094C0.074,-0.089 0.086,-0.083 0.103,-0.077C0.12,-0.071 0.139,-0.065 0.161,-0.061C0.183,-0.056 0.205,-0.053 0.227,-0.053C0.263,-0.053 0.292,-0.06 0.315,-0.075C0.338,-0.089 0.349,-0.111 0.349,-0.139C0.349,-0.159 0.343,-0.175 0.331,-0.188C0.318,-0.201 0.303,-0.212 0.286,-0.221C0.268,-0.229 0.252,-0.237 0.236,-0.243C0.201,-0.257 0.17,-0.272 0.143,-0.289C0.116,-0.305 0.095,-0.324 0.08,-0.346C0.065,-0.368 0.058,-0.394 0.058,-0.424C0.059,-0.456 0.068,-0.482 0.086,-0.503C0.104,-0.524 0.127,-0.539 0.157,-0.549C0.186,-0.559 0.218,-0.564 0.253,-0.564C0.286,-0.565 0.315,-0.562 0.342,-0.555C0.368,-0.548 0.386,-0.542 0.396,-0.536L0.382,-0.474C0.376,-0.479 0.366,-0.483 0.353,-0.488C0.34,-0.493 0.325,-0.497 0.308,-0.5C0.291,-0.503 0.274,-0.504 0.256,-0.504C0.216,-0.504 0.186,-0.497 0.166,-0.483C0.145,-0.468 0.135,-0.45 0.134,-0.428C0.134,-0.399 0.144,-0.377 0.166,-0.361C0.187,-0.346 0.213,-0.332 0.242,-0.319C0.271,-0.307 0.3,-0.293 0.328,-0.279C0.356,-0.264 0.379,-0.246 0.397,-0.225C0.416,-0.204 0.425,-0.177 0.425,-0.145C0.425,-0.096 0.407,-0.058 0.372,-0.032C0.337,-0.005 0.29,0.008 0.231,0.008C0.207,0.008 0.184,0.006 0.161,0.002C0.138,-0.002 0.117,-0.007 0.098,-0.013C0.079,-0.019 0.065,-0.025 0.054,-0.032Z" style="fill:rgb(115,136,140);fill-rule:nonzero;"/>
                </g>
                <g transform="matrix(119.632,0,0,126,1210.16,455.819)">
                    <path d="M0.091,0.247L0.091,-0.557L0.165,-0.557L0.165,-0.486L0.172,-0.476L0.172,-0.035L0.171,-0.024L0.172,0.068L0.172,0.247L0.091,0.247ZM0.28,0.008C0.244,0.008 0.214,0.004 0.189,-0.005C0.164,-0.014 0.148,-0.021 0.142,-0.026L0.172,-0.08C0.181,-0.072 0.195,-0.065 0.214,-0.06C0.233,-0.055 0.257,-0.052 0.287,-0.052C0.323,-0.052 0.355,-0.061 0.383,-0.08C0.411,-0.098 0.434,-0.124 0.45,-0.159C0.467,-0.194 0.475,-0.236 0.476,-0.285C0.477,-0.358 0.463,-0.412 0.435,-0.447C0.406,-0.482 0.367,-0.5 0.317,-0.5C0.285,-0.5 0.256,-0.494 0.231,-0.481C0.205,-0.468 0.186,-0.455 0.172,-0.443L0.159,-0.485C0.167,-0.493 0.179,-0.504 0.194,-0.516C0.209,-0.529 0.228,-0.54 0.252,-0.55C0.276,-0.559 0.305,-0.564 0.339,-0.564C0.377,-0.564 0.413,-0.555 0.446,-0.537C0.48,-0.518 0.507,-0.489 0.528,-0.45C0.549,-0.41 0.559,-0.359 0.559,-0.296C0.559,-0.237 0.547,-0.185 0.524,-0.139C0.501,-0.093 0.469,-0.057 0.427,-0.031C0.385,-0.005 0.336,0.008 0.28,0.008Z" style="fill:rgb(115,136,140);fill-rule:nonzero;"/>
                </g>
                <g transform="matrix(119.632,0,0,126,1280.75,455.819)">
                    <path d="M0.294,0.008C0.25,0.008 0.212,0 0.181,-0.016C0.15,-0.032 0.125,-0.054 0.106,-0.082C0.086,-0.109 0.072,-0.141 0.064,-0.177C0.055,-0.212 0.051,-0.25 0.051,-0.289C0.052,-0.348 0.064,-0.398 0.086,-0.439C0.109,-0.48 0.139,-0.511 0.177,-0.532C0.215,-0.553 0.257,-0.564 0.304,-0.564C0.362,-0.564 0.409,-0.551 0.445,-0.524C0.481,-0.497 0.507,-0.461 0.523,-0.416C0.539,-0.372 0.547,-0.323 0.546,-0.271C0.545,-0.212 0.534,-0.161 0.512,-0.12C0.49,-0.078 0.46,-0.047 0.423,-0.025C0.385,-0.003 0.342,0.008 0.294,0.008ZM0.296,-0.05C0.349,-0.05 0.39,-0.07 0.419,-0.11C0.448,-0.15 0.463,-0.205 0.463,-0.274C0.463,-0.317 0.458,-0.355 0.447,-0.39C0.435,-0.425 0.418,-0.453 0.394,-0.474C0.37,-0.494 0.34,-0.505 0.303,-0.505C0.251,-0.506 0.21,-0.488 0.18,-0.45C0.15,-0.412 0.135,-0.358 0.134,-0.288C0.134,-0.246 0.14,-0.207 0.151,-0.171C0.162,-0.135 0.18,-0.106 0.204,-0.084C0.228,-0.062 0.258,-0.051 0.296,-0.05Z" style="fill:rgb(115,136,140);fill-rule:nonzero;"/>
                </g>
                <g transform="matrix(119.632,0,0,126,1349.89,455.819)">
                    <path d="M0.096,-0L0.096,-0.556L0.169,-0.556L0.169,-0.485C0.182,-0.495 0.2,-0.506 0.222,-0.518C0.244,-0.53 0.268,-0.541 0.294,-0.55C0.32,-0.559 0.347,-0.564 0.374,-0.565C0.435,-0.566 0.478,-0.55 0.503,-0.517C0.528,-0.484 0.541,-0.426 0.541,-0.344L0.541,-0L0.459,-0L0.459,-0.345C0.459,-0.4 0.451,-0.44 0.436,-0.464C0.42,-0.488 0.388,-0.499 0.34,-0.497C0.323,-0.497 0.304,-0.493 0.285,-0.487C0.265,-0.48 0.246,-0.471 0.227,-0.461C0.208,-0.451 0.192,-0.44 0.178,-0.429L0.178,-0L0.096,-0Z" style="fill:rgb(115,136,140);fill-rule:nonzero;"/>
                </g>
                <g transform="matrix(119.632,0,0,126,1423.35,455.819)">
                    <path d="M0.054,-0.032L0.067,-0.094C0.074,-0.089 0.086,-0.083 0.103,-0.077C0.12,-0.071 0.139,-0.065 0.161,-0.061C0.183,-0.056 0.205,-0.053 0.227,-0.053C0.263,-0.053 0.292,-0.06 0.315,-0.075C0.338,-0.089 0.349,-0.111 0.349,-0.139C0.349,-0.159 0.343,-0.175 0.331,-0.188C0.318,-0.201 0.303,-0.212 0.286,-0.221C0.268,-0.229 0.252,-0.237 0.236,-0.243C0.201,-0.257 0.17,-0.272 0.143,-0.289C0.116,-0.305 0.095,-0.324 0.08,-0.346C0.065,-0.368 0.058,-0.394 0.058,-0.424C0.059,-0.456 0.068,-0.482 0.086,-0.503C0.104,-0.524 0.127,-0.539 0.157,-0.549C0.186,-0.559 0.218,-0.564 0.253,-0.564C0.286,-0.565 0.315,-0.562 0.342,-0.555C0.368,-0.548 0.386,-0.542 0.396,-0.536L0.382,-0.474C0.376,-0.479 0.366,-0.483 0.353,-0.488C0.34,-0.493 0.325,-0.497 0.308,-0.5C0.291,-0.503 0.274,-0.504 0.256,-0.504C0.216,-0.504 0.186,-0.497 0.166,-0.483C0.145,-0.468 0.135,-0.45 0.134,-0.428C0.134,-0.399 0.144,-0.377 0.166,-0.361C0.187,-0.346 0.213,-0.332 0.242,-0.319C0.271,-0.307 0.3,-0.293 0.328,-0.279C0.356,-0.264 0.379,-0.246 0.397,-0.225C0.416,-0.204 0.425,-0.177 0.425,-0.145C0.425,-0.096 0.407,-0.058 0.372,-0.032C0.337,-0.005 0.29,0.008 0.231,0.008C0.207,0.008 0.184,0.006 0.161,0.002C0.138,-0.002 0.117,-0.007 0.098,-0.013C0.079,-0.019 0.065,-0.025 0.054,-0.032Z" style="fill:rgb(115,136,140);fill-rule:nonzero;"/>
                </g>
                <g transform="matrix(119.632,0,0,126,1477.78,455.819)">
                    <path d="M0.098,-0L0.098,-0.556L0.179,-0.556L0.179,-0L0.098,-0ZM0.134,-0.678C0.12,-0.678 0.107,-0.683 0.097,-0.693C0.086,-0.702 0.081,-0.716 0.081,-0.733C0.081,-0.745 0.084,-0.756 0.09,-0.766C0.096,-0.775 0.104,-0.783 0.113,-0.788C0.122,-0.793 0.131,-0.796 0.141,-0.796C0.159,-0.796 0.172,-0.791 0.181,-0.78C0.19,-0.77 0.194,-0.757 0.194,-0.741C0.194,-0.722 0.188,-0.707 0.176,-0.695C0.164,-0.684 0.15,-0.678 0.134,-0.678Z" style="fill:rgb(115,136,140);fill-rule:nonzero;"/>
                </g>
                <g transform="matrix(119.632,0,0,126,1508.64,455.819)">
                    <path d="M0.094,-0.811L0.173,-0.811L0.173,-0.579L0.169,-0.484L0.173,-0.481L0.173,-0.067L0.094,-0.031L0.094,-0.811ZM0.281,0.008C0.261,0.008 0.24,0.007 0.22,0.004C0.2,0.001 0.181,-0.003 0.164,-0.007C0.147,-0.011 0.132,-0.015 0.12,-0.02C0.107,-0.024 0.099,-0.028 0.094,-0.031L0.173,-0.076C0.183,-0.069 0.198,-0.063 0.219,-0.059C0.24,-0.054 0.264,-0.052 0.29,-0.052C0.323,-0.052 0.353,-0.061 0.382,-0.078C0.41,-0.095 0.433,-0.121 0.451,-0.156C0.469,-0.191 0.478,-0.235 0.478,-0.288C0.479,-0.357 0.466,-0.41 0.439,-0.446C0.412,-0.482 0.372,-0.5 0.319,-0.5C0.288,-0.5 0.259,-0.494 0.233,-0.481C0.206,-0.468 0.186,-0.456 0.172,-0.443L0.159,-0.485C0.168,-0.494 0.18,-0.505 0.196,-0.517C0.211,-0.53 0.231,-0.541 0.255,-0.55C0.279,-0.559 0.308,-0.564 0.341,-0.564C0.382,-0.564 0.419,-0.554 0.452,-0.535C0.485,-0.515 0.512,-0.486 0.532,-0.447C0.551,-0.408 0.561,-0.358 0.561,-0.299C0.561,-0.238 0.549,-0.185 0.526,-0.139C0.502,-0.093 0.47,-0.057 0.428,-0.031C0.385,-0.005 0.337,0.008 0.281,0.008Z" style="fill:rgb(115,136,140);fill-rule:nonzero;"/>
                </g>
                <g transform="matrix(119.632,0,0,126,1579.47,455.819)">
                    <rect x="0.095" y="-0.813" width="0.082" height="0.813" style="fill:rgb(115,136,140);fill-rule:nonzero;"/>
                </g>
                <g transform="matrix(119.632,0,0,126,1609.73,455.819)">
                    <path d="M0.295,0.008C0.217,0.008 0.157,-0.017 0.116,-0.067C0.074,-0.117 0.053,-0.187 0.053,-0.276C0.053,-0.332 0.063,-0.381 0.082,-0.424C0.101,-0.467 0.13,-0.501 0.167,-0.526C0.204,-0.551 0.249,-0.564 0.302,-0.564C0.332,-0.565 0.359,-0.56 0.383,-0.55C0.407,-0.54 0.428,-0.526 0.445,-0.508C0.463,-0.489 0.476,-0.467 0.486,-0.441C0.496,-0.415 0.501,-0.387 0.502,-0.355C0.502,-0.338 0.502,-0.322 0.502,-0.308C0.501,-0.294 0.5,-0.282 0.498,-0.27L0.102,-0.27L0.109,-0.325L0.425,-0.325C0.427,-0.359 0.424,-0.39 0.417,-0.417C0.409,-0.444 0.396,-0.466 0.377,-0.482C0.357,-0.498 0.331,-0.506 0.297,-0.506C0.265,-0.506 0.236,-0.497 0.211,-0.48C0.186,-0.463 0.166,-0.436 0.152,-0.398C0.138,-0.36 0.131,-0.311 0.133,-0.25C0.135,-0.202 0.143,-0.164 0.16,-0.136C0.175,-0.107 0.197,-0.086 0.224,-0.073C0.251,-0.06 0.282,-0.054 0.316,-0.054C0.333,-0.054 0.351,-0.056 0.371,-0.061C0.39,-0.065 0.409,-0.07 0.426,-0.077C0.443,-0.083 0.456,-0.09 0.466,-0.096L0.483,-0.043C0.471,-0.033 0.455,-0.024 0.434,-0.017C0.413,-0.009 0.391,-0.003 0.366,0.002C0.342,0.006 0.318,0.008 0.295,0.008Z" style="fill:rgb(115,136,140);fill-rule:nonzero;"/>
                </g>
                <g transform="matrix(119.632,0,0,126,1705.32,455.819)">
                    <rect x="0.108" y="-0.743" width="0.083" height="0.743" style="fill:rgb(115,136,140);fill-rule:nonzero;"/>
                </g>
                <g transform="matrix(119.632,0,0,126,1738.82,455.819)">
                    <path d="M0.096,-0L0.096,-0.556L0.169,-0.556L0.169,-0.485C0.182,-0.495 0.2,-0.506 0.222,-0.518C0.244,-0.53 0.268,-0.541 0.294,-0.55C0.32,-0.559 0.347,-0.564 0.374,-0.565C0.435,-0.566 0.478,-0.55 0.503,-0.517C0.528,-0.484 0.541,-0.426 0.541,-0.344L0.541,-0L0.459,-0L0.459,-0.345C0.459,-0.4 0.451,-0.44 0.436,-0.464C0.42,-0.488 0.388,-0.499 0.34,-0.497C0.323,-0.497 0.304,-0.493 0.285,-0.487C0.265,-0.48 0.246,-0.471 0.227,-0.461C0.208,-0.451 0.192,-0.44 0.178,-0.429L0.178,-0L0.096,-0Z" style="fill:rgb(115,136,140);fill-rule:nonzero;"/>
                </g>
                <g transform="matrix(119.632,0,0,126,1812.27,455.819)">
                    <path d="M0.096,-0L0.096,-0.556L0.169,-0.556L0.169,-0.485C0.182,-0.495 0.2,-0.506 0.222,-0.518C0.244,-0.53 0.268,-0.541 0.294,-0.55C0.32,-0.559 0.347,-0.564 0.374,-0.565C0.435,-0.566 0.478,-0.55 0.503,-0.517C0.528,-0.484 0.541,-0.426 0.541,-0.344L0.541,-0L0.459,-0L0.459,-0.345C0.459,-0.4 0.451,-0.44 0.436,-0.464C0.42,-0.488 0.388,-0.499 0.34,-0.497C0.323,-0.497 0.304,-0.493 0.285,-0.487C0.265,-0.48 0.246,-0.471 0.227,-0.461C0.208,-0.451 0.192,-0.44 0.178,-0.429L0.178,-0L0.096,-0Z" style="fill:rgb(115,136,140);fill-rule:nonzero;"/>
                </g>
                <g transform="matrix(119.632,0,0,126,1885.72,455.819)">
                    <path d="M0.294,0.008C0.25,0.008 0.212,0 0.181,-0.016C0.15,-0.032 0.125,-0.054 0.106,-0.082C0.086,-0.109 0.072,-0.141 0.064,-0.177C0.055,-0.212 0.051,-0.25 0.051,-0.289C0.052,-0.348 0.064,-0.398 0.086,-0.439C0.109,-0.48 0.139,-0.511 0.177,-0.532C0.215,-0.553 0.257,-0.564 0.304,-0.564C0.362,-0.564 0.409,-0.551 0.445,-0.524C0.481,-0.497 0.507,-0.461 0.523,-0.416C0.539,-0.372 0.547,-0.323 0.546,-0.271C0.545,-0.212 0.534,-0.161 0.512,-0.12C0.49,-0.078 0.46,-0.047 0.423,-0.025C0.385,-0.003 0.342,0.008 0.294,0.008ZM0.296,-0.05C0.349,-0.05 0.39,-0.07 0.419,-0.11C0.448,-0.15 0.463,-0.205 0.463,-0.274C0.463,-0.317 0.458,-0.355 0.447,-0.39C0.435,-0.425 0.418,-0.453 0.394,-0.474C0.37,-0.494 0.34,-0.505 0.303,-0.505C0.251,-0.506 0.21,-0.488 0.18,-0.45C0.15,-0.412 0.135,-0.358 0.134,-0.288C0.134,-0.246 0.14,-0.207 0.151,-0.171C0.162,-0.135 0.18,-0.106 0.204,-0.084C0.228,-0.062 0.258,-0.051 0.296,-0.05Z" style="fill:rgb(115,136,140);fill-rule:nonzero;"/>
                </g>
                <g transform="matrix(119.632,0,0,126,1953.68,455.819)">
                    <path d="M0.241,0.009L0.018,-0.557L0.106,-0.557L0.232,-0.211L0.289,-0.038L0.265,-0.038L0.317,-0.211L0.439,-0.557L0.526,-0.557L0.31,0.009L0.241,0.009Z" style="fill:rgb(115,136,140);fill-rule:nonzero;"/>
                </g>
                <g transform="matrix(119.632,0,0,126,2016.48,455.819)">
                    <path d="M0.223,0.008C0.19,0.008 0.161,0.002 0.136,-0.011C0.11,-0.023 0.09,-0.041 0.076,-0.064C0.061,-0.087 0.054,-0.115 0.054,-0.147C0.054,-0.184 0.064,-0.215 0.085,-0.24C0.105,-0.266 0.135,-0.286 0.174,-0.3C0.196,-0.308 0.22,-0.315 0.246,-0.32C0.272,-0.325 0.298,-0.328 0.324,-0.33C0.349,-0.332 0.372,-0.333 0.391,-0.333L0.409,-0.31L0.391,-0.281C0.378,-0.281 0.361,-0.28 0.34,-0.279C0.319,-0.277 0.297,-0.274 0.275,-0.27C0.253,-0.266 0.235,-0.261 0.219,-0.255C0.191,-0.245 0.17,-0.231 0.156,-0.215C0.141,-0.199 0.134,-0.178 0.134,-0.153C0.134,-0.124 0.143,-0.1 0.161,-0.081C0.178,-0.062 0.207,-0.053 0.247,-0.053C0.271,-0.053 0.293,-0.056 0.313,-0.063C0.334,-0.069 0.351,-0.076 0.365,-0.084C0.379,-0.092 0.388,-0.098 0.392,-0.102L0.41,-0.086L0.397,-0.053C0.382,-0.039 0.359,-0.025 0.329,-0.012C0.298,0.001 0.263,0.008 0.223,0.008ZM0.472,-0L0.396,-0L0.396,-0.079L0.391,-0.08L0.391,-0.391C0.391,-0.434 0.38,-0.462 0.359,-0.477C0.337,-0.491 0.305,-0.498 0.261,-0.498C0.242,-0.498 0.223,-0.496 0.202,-0.491C0.181,-0.486 0.162,-0.48 0.144,-0.473C0.126,-0.465 0.113,-0.458 0.103,-0.451L0.083,-0.509C0.089,-0.513 0.103,-0.52 0.123,-0.529C0.143,-0.538 0.167,-0.546 0.195,-0.554C0.223,-0.561 0.252,-0.565 0.282,-0.565C0.32,-0.565 0.353,-0.56 0.382,-0.55C0.41,-0.54 0.432,-0.522 0.448,-0.497C0.464,-0.471 0.472,-0.435 0.472,-0.388L0.472,-0Z" style="fill:rgb(115,136,140);fill-rule:nonzero;"/>
                </g>
                <g transform="matrix(119.632,0,0,126,2081.08,455.819)">
                    <path d="M0.242,0.008C0.219,0.008 0.198,0.005 0.179,-0.002C0.16,-0.009 0.144,-0.023 0.133,-0.043C0.121,-0.063 0.115,-0.092 0.115,-0.132L0.115,-0.495L0.038,-0.495L0.038,-0.54C0.056,-0.545 0.074,-0.549 0.091,-0.553C0.108,-0.556 0.119,-0.564 0.123,-0.575C0.125,-0.581 0.127,-0.59 0.13,-0.603C0.132,-0.616 0.135,-0.63 0.138,-0.645C0.141,-0.66 0.144,-0.673 0.147,-0.684L0.196,-0.684L0.196,-0.557L0.369,-0.557L0.369,-0.495L0.196,-0.495L0.196,-0.178C0.196,-0.141 0.198,-0.114 0.203,-0.097C0.208,-0.08 0.215,-0.07 0.226,-0.065C0.237,-0.06 0.252,-0.058 0.27,-0.058C0.281,-0.058 0.294,-0.059 0.308,-0.062C0.322,-0.065 0.335,-0.069 0.347,-0.073C0.359,-0.077 0.369,-0.081 0.375,-0.085L0.389,-0.038C0.38,-0.03 0.367,-0.023 0.35,-0.016C0.333,-0.009 0.315,-0.003 0.296,0.001C0.277,0.006 0.259,0.008 0.242,0.008Z" style="fill:rgb(115,136,140);fill-rule:nonzero;"/>
                </g>
                <g transform="matrix(119.632,0,0,126,2128.94,455.819)">
                    <path d="M0.098,-0L0.098,-0.556L0.179,-0.556L0.179,-0L0.098,-0ZM0.134,-0.678C0.12,-0.678 0.107,-0.683 0.097,-0.693C0.086,-0.702 0.081,-0.716 0.081,-0.733C0.081,-0.745 0.084,-0.756 0.09,-0.766C0.096,-0.775 0.104,-0.783 0.113,-0.788C0.122,-0.793 0.131,-0.796 0.141,-0.796C0.159,-0.796 0.172,-0.791 0.181,-0.78C0.19,-0.77 0.194,-0.757 0.194,-0.741C0.194,-0.722 0.188,-0.707 0.176,-0.695C0.164,-0.684 0.15,-0.678 0.134,-0.678Z" style="fill:rgb(115,136,140);fill-rule:nonzero;"/>
                </g>
                <g transform="matrix(119.632,0,0,126,2159.8,455.819)">
                    <path d="M0.294,0.008C0.25,0.008 0.212,0 0.181,-0.016C0.15,-0.032 0.125,-0.054 0.106,-0.082C0.086,-0.109 0.072,-0.141 0.064,-0.177C0.055,-0.212 0.051,-0.25 0.051,-0.289C0.052,-0.348 0.064,-0.398 0.086,-0.439C0.109,-0.48 0.139,-0.511 0.177,-0.532C0.215,-0.553 0.257,-0.564 0.304,-0.564C0.362,-0.564 0.409,-0.551 0.445,-0.524C0.481,-0.497 0.507,-0.461 0.523,-0.416C0.539,-0.372 0.547,-0.323 0.546,-0.271C0.545,-0.212 0.534,-0.161 0.512,-0.12C0.49,-0.078 0.46,-0.047 0.423,-0.025C0.385,-0.003 0.342,0.008 0.294,0.008ZM0.296,-0.05C0.349,-0.05 0.39,-0.07 0.419,-0.11C0.448,-0.15 0.463,-0.205 0.463,-0.274C0.463,-0.317 0.458,-0.355 0.447,-0.39C0.435,-0.425 0.418,-0.453 0.394,-0.474C0.37,-0.494 0.34,-0.505 0.303,-0.505C0.251,-0.506 0.21,-0.488 0.18,-0.45C0.15,-0.412 0.135,-0.358 0.134,-0.288C0.134,-0.246 0.14,-0.207 0.151,-0.171C0.162,-0.135 0.18,-0.106 0.204,-0.084C0.228,-0.062 0.258,-0.051 0.296,-0.05Z" style="fill:rgb(115,136,140);fill-rule:nonzero;"/>
                </g>
                <g transform="matrix(119.632,0,0,126,2228.95,455.819)">
                    <path d="M0.096,-0L0.096,-0.556L0.169,-0.556L0.169,-0.485C0.182,-0.495 0.2,-0.506 0.222,-0.518C0.244,-0.53 0.268,-0.541 0.294,-0.55C0.32,-0.559 0.347,-0.564 0.374,-0.565C0.435,-0.566 0.478,-0.55 0.503,-0.517C0.528,-0.484 0.541,-0.426 0.541,-0.344L0.541,-0L0.459,-0L0.459,-0.345C0.459,-0.4 0.451,-0.44 0.436,-0.464C0.42,-0.488 0.388,-0.499 0.34,-0.497C0.323,-0.497 0.304,-0.493 0.285,-0.487C0.265,-0.48 0.246,-0.471 0.227,-0.461C0.208,-0.451 0.192,-0.44 0.178,-0.429L0.178,-0L0.096,-0Z" style="fill:rgb(115,136,140);fill-rule:nonzero;"/>
                </g>
            </g>
        </g>
    </g>
</svg>
